<svg width="102" height="112" viewBox="0 0 102 112" fill="none" xmlns="http://www.w3.org/2000/svg">
<g filter="url(#filter0_d_79_49)">
<path d="M34 18.3334H25.5C23.2457 18.3334 21.0837 19.2991 19.4896 21.0182C17.8955 22.7373 17 25.0689 17 27.5V91.6667C17 94.0978 17.8955 96.4294 19.4896 98.1485C21.0837 99.8676 23.2457 100.833 25.5 100.833H76.5C78.7543 100.833 80.9163 99.8676 82.5104 98.1485C84.1045 96.4294 85 94.0978 85 91.6667V82.5M68 18.3334H76.5C78.7543 18.3334 80.9163 19.2991 82.5104 21.0182C84.1045 22.7373 85 25.0689 85 27.5V45.8334M89.25 64.1667H46.75M46.75 64.1667L63.75 45.8334M46.75 64.1667L63.75 82.5M38.25 9.16669H63.75C66.0972 9.16669 68 11.2187 68 13.75V22.9167C68 25.448 66.0972 27.5 63.75 27.5H38.25C35.9028 27.5 34 25.448 34 22.9167V13.75C34 11.2187 35.9028 9.16669 38.25 9.16669Z" stroke="#A6A6A6" stroke-width="6" stroke-linecap="round" stroke-linejoin="round"/>
<path d="M26 45C26 42.6131 26.9482 40.3239 28.636 38.636C30.3239 36.9482 32.6131 36 35 36C37.516 36.0095 39.931 36.9912 41.74 38.74L44 41M44 41V36M44 41H39M44 45C44 47.3869 43.0518 49.6761 41.364 51.364C39.6761 53.0518 37.3869 54 35 54C32.484 53.9905 30.069 53.0088 28.26 51.26L26 49M26 49H31M26 49V54" stroke="#A6A6A6" stroke-width="3" stroke-linecap="round" stroke-linejoin="round"/>
</g>
<defs>
<filter id="filter0_d_79_49" x="-4" y="0" width="110" height="118" filterUnits="userSpaceOnUse" color-interpolation-filters="sRGB">
<feFlood flood-opacity="0" result="BackgroundImageFix"/>
<feColorMatrix in="SourceAlpha" type="matrix" values="0 0 0 0 0 0 0 0 0 0 0 0 0 0 0 0 0 0 127 0" result="hardAlpha"/>
<feOffset dy="4"/>
<feGaussianBlur stdDeviation="2"/>
<feComposite in2="hardAlpha" operator="out"/>
<feColorMatrix type="matrix" values="0 0 0 0 0 0 0 0 0 0 0 0 0 0 0 0 0 0 0.25 0"/>
<feBlend mode="normal" in2="BackgroundImageFix" result="effect1_dropShadow_79_49"/>
<feBlend mode="normal" in="SourceGraphic" in2="effect1_dropShadow_79_49" result="shape"/>
</filter>
</defs>
</svg>
